<svg id="visual" viewBox="0 0 960 540" width="960" height="540" xmlns="http://www.w3.org/2000/svg" xmlns:xlink="http://www.w3.org/1999/xlink" version="1.1"><rect x="0" y="0" width="960" height="540" fill="#4d5688"></rect><defs><linearGradient id="grad1_0" x1="43.8%" y1="0%" x2="100%" y2="100%"><stop offset="14.444444444444446%" stop-color="#425be9" stop-opacity="1"></stop><stop offset="85.55555555555554%" stop-color="#425be9" stop-opacity="1"></stop></linearGradient></defs><defs><linearGradient id="grad1_1" x1="43.8%" y1="0%" x2="100%" y2="100%"><stop offset="14.444444444444446%" stop-color="#425be9" stop-opacity="1"></stop><stop offset="85.55555555555554%" stop-color="#455bc9" stop-opacity="1"></stop></linearGradient></defs><defs><linearGradient id="grad1_2" x1="43.8%" y1="0%" x2="100%" y2="100%"><stop offset="14.444444444444446%" stop-color="#4959a9" stop-opacity="1"></stop><stop offset="85.55555555555554%" stop-color="#455bc9" stop-opacity="1"></stop></linearGradient></defs><defs><linearGradient id="grad1_3" x1="43.8%" y1="0%" x2="100%" y2="100%"><stop offset="14.444444444444446%" stop-color="#4959a9" stop-opacity="1"></stop><stop offset="85.55555555555554%" stop-color="#4d5688" stop-opacity="1"></stop></linearGradient></defs><defs><linearGradient id="grad2_0" x1="0%" y1="0%" x2="56.3%" y2="100%"><stop offset="14.444444444444446%" stop-color="#425be9" stop-opacity="1"></stop><stop offset="85.55555555555554%" stop-color="#425be9" stop-opacity="1"></stop></linearGradient></defs><defs><linearGradient id="grad2_1" x1="0%" y1="0%" x2="56.3%" y2="100%"><stop offset="14.444444444444446%" stop-color="#455bc9" stop-opacity="1"></stop><stop offset="85.55555555555554%" stop-color="#425be9" stop-opacity="1"></stop></linearGradient></defs><defs><linearGradient id="grad2_2" x1="0%" y1="0%" x2="56.3%" y2="100%"><stop offset="14.444444444444446%" stop-color="#455bc9" stop-opacity="1"></stop><stop offset="85.55555555555554%" stop-color="#4959a9" stop-opacity="1"></stop></linearGradient></defs><defs><linearGradient id="grad2_3" x1="0%" y1="0%" x2="56.3%" y2="100%"><stop offset="14.444444444444446%" stop-color="#4d5688" stop-opacity="1"></stop><stop offset="85.55555555555554%" stop-color="#4959a9" stop-opacity="1"></stop></linearGradient></defs><g transform="translate(960, 0)"><path d="M0 378C-29.5 372 -59 366.1 -78.8 345.1C-98.6 324.2 -108.7 288.2 -134.1 278.4C-159.5 268.6 -200.2 285.1 -217.6 272.9C-235 260.7 -229 219.8 -251 200.1C-273 180.4 -323 181.8 -340.6 164C-358.2 146.2 -343.3 109.1 -344.1 78.5C-345 48 -361.5 24 -378 0L0 0Z" fill="#4b5898"></path><path d="M0 283.5C-22.1 279 -44.2 274.6 -59.1 258.8C-73.9 243.1 -81.5 216.1 -100.6 208.8C-119.6 201.5 -150.2 213.8 -163.2 204.6C-176.2 195.5 -171.7 164.9 -188.2 150.1C-204.7 135.3 -242.2 136.4 -255.4 123C-268.6 109.6 -257.5 81.8 -258.1 58.9C-258.7 36 -271.1 18 -283.5 0L0 0Z" fill="#475ab9"></path><path d="M0 189C-14.7 186 -29.5 183 -39.4 172.6C-49.3 162.1 -54.3 144.1 -67 139.2C-79.7 134.3 -100.1 142.5 -108.8 136.4C-117.5 130.3 -114.5 109.9 -125.5 100.1C-136.5 90.2 -161.5 90.9 -170.3 82C-179.1 73.1 -171.7 54.5 -172.1 39.3C-172.5 24 -180.7 12 -189 0L0 0Z" fill="#435bd9"></path><path d="M0 94.5C-7.4 93 -14.7 91.5 -19.7 86.3C-24.6 81 -27.2 72 -33.5 69.6C-39.9 67.2 -50.1 71.3 -54.4 68.2C-58.7 65.2 -57.2 55 -62.7 50C-68.2 45.1 -80.7 45.5 -85.1 41C-89.5 36.5 -85.8 27.3 -86 19.6C-86.2 12 -90.4 6 -94.5 0L0 0Z" fill="#425be9"></path></g><g transform="translate(0, 540)"><path d="M0 -378C17.5 -324.5 35 -271 59.4 -260.3C83.8 -249.6 115.1 -281.8 138 -286.5C160.9 -291.2 175.5 -268.4 207.6 -260.3C239.8 -252.3 289.5 -259.1 295.5 -235.7C301.5 -212.3 263.8 -158.7 270.3 -130.2C276.8 -101.6 327.6 -98.1 352.9 -80.6C378.3 -63 378.1 -31.5 378 0L0 0Z" fill="#4b5898"></path><path d="M0 -283.5C13.1 -243.4 26.3 -203.2 44.6 -195.2C62.8 -187.2 86.3 -211.4 103.5 -214.9C120.7 -218.4 131.6 -201.3 155.7 -195.3C179.8 -189.2 217.2 -194.3 221.6 -176.8C226.1 -159.2 197.8 -119 202.7 -97.6C207.6 -76.2 245.7 -73.6 264.7 -60.4C283.7 -47.3 283.6 -23.6 283.5 0L0 0Z" fill="#475ab9"></path><path d="M0 -189C8.8 -162.2 17.5 -135.5 29.7 -130.2C41.9 -124.8 57.5 -140.9 69 -143.3C80.4 -145.6 87.7 -134.2 103.8 -130.2C119.9 -126.2 144.8 -129.5 147.8 -117.8C150.8 -106.1 131.9 -79.4 135.1 -65.1C138.4 -50.8 163.8 -49 176.5 -40.3C189.1 -31.5 189.1 -15.8 189 0L0 0Z" fill="#435bd9"></path><path d="M0 -94.5C4.4 -81.1 8.8 -67.7 14.9 -65.1C20.9 -62.4 28.8 -70.5 34.5 -71.6C40.2 -72.8 43.9 -67.1 51.9 -65.1C59.9 -63.1 72.4 -64.8 73.9 -58.9C75.4 -53.1 65.9 -39.7 67.6 -32.5C69.2 -25.4 81.9 -24.5 88.2 -20.1C94.6 -15.8 94.5 -7.9 94.5 0L0 0Z" fill="#425be9"></path></g></svg>